<svg xmlns="http://www.w3.org/2000/svg" width="25.169" height="18" viewBox="0 0 215.169 228">
  <g id="Group_37" data-name="Group 37" transform="translate(0 0)">
    <circle id="Ellipse_11" data-name="Ellipse 11" cx="10.2" cy="10.2" r="10.2" transform="translate(72.171 15.879)" fill="#fd6584"/>
    <path id="Path_42" data-name="Path 42" d="M560.55,224.182a5.056,5.056,0,0,0-4.267-3.549.41.41,0,0,0-.069,0,.541.541,0,0,0-.084-.019,12.461,12.461,0,0,0-9.768,2.98,9.153,9.153,0,0,0-2.227,3.072A4.935,4.935,0,0,0,540,224.648a5.037,5.037,0,0,0-4.508,3.633.583.583,0,0,0,.264.646,2.549,2.549,0,0,0,1.066.542c.844.18,1.7.344,2.548.493q2.5.435,5.024.707,1.668.178,3.343.283c2.307.145,4.626.18,6.938.107a7.915,7.915,0,0,0,3.293-.581,4.889,4.889,0,0,0,1.891-1.647A5.558,5.558,0,0,0,560.55,224.182Z" transform="translate(-455.35 -202.933)" fill="#e6e6e6"/>
    <path id="Path_43" data-name="Path 43" d="M505.27,261.049a5.215,5.215,0,0,0-.214-1.261,5.066,5.066,0,0,0-4.271-3.549.366.366,0,0,0-.065,0,.72.72,0,0,0-.088-.019,12.68,12.68,0,0,0-5.612.577,10.394,10.394,0,0,0-6.38,5.474,4.937,4.937,0,0,0-4.141-2.017,5.036,5.036,0,0,0-4.508,3.633.594.594,0,0,0,.264.646,2.572,2.572,0,0,0,1.066.542c.848.18,1.7.344,2.552.493q2.5.436,5.02.707a74.557,74.557,0,0,0,10.284.39,7.926,7.926,0,0,0,3.293-.581,4.878,4.878,0,0,0,1.887-1.647A5.449,5.449,0,0,0,505.27,261.049Z" transform="translate(-421.055 -224.938)" fill="#e6e6e6"/>
    <path id="Path_44" data-name="Path 44" d="M485.483,339.326h-9.3V194.167c-.627-.462-1.257-.921-1.895-1.368l-.378-.264a110.146,110.146,0,0,0-23.689-12.584l-1.8,24.87v0h-11.6V175.784c-.756-.187-1.513-.363-2.277-.527v29.567H390.729V174.489c-.76.141-1.52.287-2.277.443v29.891H376.468v0l-1.891-26.081A109.9,109.9,0,0,0,351.358,190c-.252.16-.5.321-.756.489-.508.329-1.016.665-1.517,1V339.326H335.993a10.24,10.24,0,0,0-9.509,14.055,9.759,9.759,0,0,0,.669,1.36,10.349,10.349,0,0,0,1.154,1.6,10.223,10.223,0,0,0,7.686,3.48H485.483a10.246,10.246,0,0,0,0-20.492ZM445.921,239.35l-7.232,99.976H386.2l-7.232-99.976Zm2.334-32.25-1.784,24.662h-9.654V207.1Zm-13.715,0v24.662H417.107a4.17,4.17,0,0,0-3.714-2.277h-2.276a4.17,4.17,0,0,0-3.714,2.277H390.729V207.1Zm-46.088,24.662H378.417L376.633,207.1h11.82Z" transform="translate(-325.746 -174.489)" fill="#f2f2f2"/>
    <path id="Path_45" data-name="Path 45" d="M328.114,649.216a110.413,110.413,0,0,0,10.743,11.06l145.01.382a110.4,110.4,0,0,0,10.743-11.06Z" transform="translate(-327.209 -467.858)" fill="#3f3d56"/>
    <path id="Path_46" data-name="Path 46" d="M519.8,550.268v39.181h27.449V550.268a1.317,1.317,0,0,0-.928-1.261,1.215,1.215,0,0,0-.393-.061h-24.8A1.323,1.323,0,0,0,519.8,550.268Zm10.712,13.463a2.93,2.93,0,1,1,5.86,0v4.546a2.93,2.93,0,0,1-5.86,0Z" transform="translate(-445.669 -405.893)" fill="#2f2e41"/>
    <path id="Path_47" data-name="Path 47" d="M519.584,651.686v3.778a.743.743,0,0,0,.737.741h26.142a.741.741,0,0,0,.737-.741v-3.778Z" transform="translate(-445.533 -469.384)" fill="#3f3d56"/>
    <path id="Path_48" data-name="Path 48" d="M406.774,392.33v71.538a3.441,3.441,0,0,0,3.438,3.438H516.225a3.441,3.441,0,0,0,3.438-3.438V392.33a3.443,3.443,0,0,0-3.438-3.434H410.212A3.443,3.443,0,0,0,406.774,392.33Z" transform="translate(-375.819 -306.987)" fill="#3f3d56"/>
    <path id="Path_49" data-name="Path 49" d="M413.284,397.237V467a1.841,1.841,0,0,0,1.838,1.838H519.365A1.841,1.841,0,0,0,521.2,467V397.237a1.842,1.842,0,0,0-1.837-1.841H415.122A1.842,1.842,0,0,0,413.284,397.237Z" transform="translate(-379.842 -311.004)" fill="#6c63ff"/>
    <path id="Path_50" data-name="Path 50" d="M468.509,655.446a1.127,1.127,0,0,0,.886.424h62.018a1.141,1.141,0,0,0,1.116-1.375l-.963-4.573a1.143,1.143,0,0,0-.71-.829,1.109,1.109,0,0,0-.405-.076h-60.1a1.1,1.1,0,0,0-.4.076,1.144,1.144,0,0,0-.711.829l-.963,4.573A1.14,1.14,0,0,0,468.509,655.446Z" transform="translate(-413.811 -467.734)" fill="#2f2e41"/>
    <path id="Path_51" data-name="Path 51" d="M471.9,651.516a.15.15,0,0,0-.055.01.194.194,0,0,0-.125.135l-.963,4.575a.182.182,0,0,0,.039.151l0,.005a.172.172,0,0,0,.142.067h62.018a.179.179,0,0,0,.141-.067.175.175,0,0,0,.04-.152l-.964-4.578a.19.19,0,0,0-.116-.133.166.166,0,0,0-.065-.013Z" transform="translate(-415.356 -469.279)" fill="#fff"/>
    <path id="Path_52" data-name="Path 52" d="M426.239,419.3H523.78a.388.388,0,1,0,0-.776H426.239a.388.388,0,1,0,0,.776Z" transform="translate(-387.608 -325.294)" fill="#3f3d56"/>
    <ellipse id="Ellipse_12" data-name="Ellipse 12" cx="2.273" cy="2.324" rx="2.273" ry="2.324" transform="translate(127.258 86.599)" fill="#3f3d56"/>
    <ellipse id="Ellipse_13" data-name="Ellipse 13" cx="2.273" cy="2.324" rx="2.273" ry="2.324" transform="translate(119.406 86.599)" fill="#3f3d56"/>
    <ellipse id="Ellipse_14" data-name="Ellipse 14" cx="2.273" cy="2.324" rx="2.273" ry="2.324" transform="translate(111.553 86.599)" fill="#3f3d56"/>
    <path id="Path_53" data-name="Path 53" d="M438.156,403.1a.418.418,0,0,0,.416.42h5.578a.422.422,0,0,0,0-.844h-5.578a.421.421,0,0,0-.416.424Z" transform="translate(-395.212 -315.503)" fill="#3f3d56"/>
    <path id="Path_54" data-name="Path 54" d="M438.156,407.25a.418.418,0,0,0,.416.42h5.578a.422.422,0,1,0,0-.844h-5.578a.422.422,0,0,0-.416.424Z" transform="translate(-395.212 -318.067)" fill="#3f3d56"/>
    <path id="Path_55" data-name="Path 55" d="M438.156,411.4a.421.421,0,0,0,.416.424h5.578a.422.422,0,0,0,0-.844h-5.578A.418.418,0,0,0,438.156,411.4Z" transform="translate(-395.212 -320.632)" fill="#3f3d56"/>
    <path id="Path_56" data-name="Path 56" d="M527.9,451.546H459.422a3.4,3.4,0,0,0-3.393,3.393v33.327a3.4,3.4,0,0,0,3.393,3.393H527.9a3.4,3.4,0,0,0,3.393-3.393V454.939A3.4,3.4,0,0,0,527.9,451.546Zm2.629,3.393v9.723H506.456V452.31H527.9a2.632,2.632,0,0,1,2.629,2.629Zm-48.9,22.84V465.426h24.068v12.352Zm24.068.764v12.352H481.625V478.543Zm-24.832-.764H456.793V465.426h24.068Zm.764-13.116V452.31h24.068v12.352Zm24.832.764h24.068v12.352H506.456ZM459.422,452.31H480.86v12.352H456.793v-9.723a2.632,2.632,0,0,1,2.629-2.629Zm-2.629,35.956v-9.723H480.86v12.352H459.422a2.632,2.632,0,0,1-2.629-2.629Zm71.1,2.629H506.456V478.543h24.068v9.723a2.632,2.632,0,0,1-2.629,2.629Z" transform="translate(-406.257 -345.703)" fill="#3f3d56"/>
    <path id="Path_57" data-name="Path 57" d="M519.446,469.638a4.806,4.806,0,0,0-2.455-2.406c-1.306-.38-2.647.375-3.785,1.12a110.3,110.3,0,0,0-9.816,7.232l0,.039,7.325-.505a12.615,12.615,0,0,0,5.148-1.095,4.537,4.537,0,0,1,1.839-.769,2.956,2.956,0,0,1,2.13,1.153c3.376,3.595,4.353,9.092,8.14,12.25a120.186,120.186,0,0,0-8.528-17.019Z" transform="translate(-435.525 -355.334)" fill="#fff"/>
    <path id="Path_58" data-name="Path 58" d="M527.083,496.334c-.373-.471-.526-.582-.894-1.058q-4.5-5.817-8.454-12.026-2.688-4.217-5.109-8.6-1.153-2.082-2.242-4.2-.845-1.64-1.653-3.3c-.154-.316-.3-.633-.452-.952-.351-.748-.7-1.5-1.065-2.238a6.156,6.156,0,0,0-1.708-2.288,2.33,2.33,0,0,0-1.214-.467,3.385,3.385,0,0,0-1.757.5,56.562,56.562,0,0,0-11.121,7.669,57.9,57.9,0,0,0-9.036,10.03c-.08.114-.269.005-.188-.11q.476-.673.971-1.332a58.22,58.22,0,0,1,14.864-13.864q1.446-.937,2.946-1.786c.5-.285,1.01-.567,1.525-.832a3.717,3.717,0,0,1,1.618-.5c1.962-.031,2.979,2.192,3.677,3.688q.329.706.666,1.408,1.274,2.664,2.645,5.279.846,1.615,1.73,3.21,2.75,4.969,5.845,9.737c2.734,4.211,5.446,7.93,8.56,11.867C527.323,496.289,527.17,496.444,527.083,496.334Z" transform="translate(-422.412 -351.539)" fill="#fff"/>
    <path id="Path_59" data-name="Path 59" d="M477.345,474.274l-.342-.381a10.082,10.082,0,0,0-3.119-2.564,4.525,4.525,0,0,0-1.9-.439,5.41,5.41,0,0,0-1.968.429c-.3.118-.586.253-.872.4-.326.164-.646.339-.965.516q-.9.5-1.772,1.037-1.74,1.075-3.371,2.315-.845.643-1.656,1.328-.754.636-1.477,1.307c-.1.1-.257-.059-.154-.154.127-.118.256-.236.384-.352q.545-.492,1.107-.966,1.025-.865,2.1-1.663,1.677-1.242,3.469-2.316.9-.536,1.816-1.027c.185-.1.373-.2.562-.287a8.953,8.953,0,0,1,1.336-.544,4.754,4.754,0,0,1,2.018-.2,5.255,5.255,0,0,1,1.862.644,12.586,12.586,0,0,1,3.088,2.766C477.592,474.224,477.439,474.379,477.345,474.274Z" transform="translate(-408.537 -357.525)" fill="#fff"/>
    <path id="Path_60" data-name="Path 60" d="M571.09,503.356l2.924-1.069,1.452-.531a14.844,14.844,0,0,1,1.433-.494,2.261,2.261,0,0,1,1.3.016,2.991,2.991,0,0,1,1.012.627,8.217,8.217,0,0,1,.83.886c.316.38.627.764.94,1.146q1.937,2.368,3.848,4.757t3.8,4.8q1.89,2.415,3.754,4.85l.456.6c.084.11.273,0,.188-.11q-1.878-2.46-3.782-4.9t-3.844-4.87q-1.935-2.425-3.9-4.828-.489-.6-.979-1.2c-.276-.336-.548-.676-.851-.988a3.066,3.066,0,0,0-2.078-1.1,4.011,4.011,0,0,0-1.414.311c-.489.177-.977.357-1.465.536l-2.944,1.077-.736.269c-.131.048-.074.258.058.21Z" transform="translate(-477.281 -376.235)" fill="#fff"/>
    <path id="Path_61" data-name="Path 61" d="M488.1,474.894a4.72,4.72,0,0,0-4.754.34,67.815,67.815,0,0,1,7.715,1.8C490.009,476.418,489.186,475.451,488.1,474.894Z" transform="translate(-423.139 -359.831)" fill="#fff"/>
    <path id="Path_62" data-name="Path 62" d="M482.846,476.563l-.286.233c.1-.081.2-.158.3-.23Z" transform="translate(-422.653 -361.163)" fill="#fff"/>
    <path id="Path_63" data-name="Path 63" d="M589.949,505.88a2.434,2.434,0,0,0-1.03-.859l-.4.016a45.592,45.592,0,0,0,12.143,13.883Z" transform="translate(-488.132 -378.748)" fill="#fff"/>
    <circle id="Ellipse_15" data-name="Ellipse 15" cx="2.315" cy="2.315" r="2.315" transform="translate(97.623 116.582)" fill="#fff"/>
    <path id="Path_64" data-name="Path 64" d="M672.487,490.013a1.722,1.722,0,0,0,1.719-1.719V452.765a1.719,1.719,0,1,0-3.438,0v35.528a1.722,1.722,0,0,0,1.719,1.719Z" transform="translate(-538.96 -345.394)" fill="#3f3d56"/>
    <path id="Path_65" data-name="Path 65" d="M672.487,536.67a1.722,1.722,0,0,0,1.719-1.719v-7.534a2.132,2.132,0,0,0-3.438,0v7.534a1.722,1.722,0,0,0,1.719,1.719Z" transform="translate(-538.96 -392.051)" fill="#2f2e41"/>
    <path id="Path_66" data-name="Path 66" d="M672.277,516.434a1.852,1.852,0,0,0,1.849-1.849v-8.1a2.293,2.293,0,0,0-3.7,0v8.1A1.852,1.852,0,0,0,672.277,516.434Z" transform="translate(-538.75 -379.073)" fill="#6c63ff"/>
    <path id="Path_67" data-name="Path 67" d="M673.087,517.344A1.351,1.351,0,0,0,674.435,516v-5.91a1.672,1.672,0,0,0-2.7,0V516a1.351,1.351,0,0,0,1.349,1.349Z" transform="translate(-539.56 -381.457)" fill="#3f3d56"/>
    <path id="Path_68" data-name="Path 68" d="M535.621,626.024a1.53,1.53,0,0,1-.121-2.158l15.02-16.806A1.528,1.528,0,0,1,552.8,609.1L537.779,625.9A1.53,1.53,0,0,1,535.621,626.024Z" transform="translate(-455.129 -441.491)" fill="#6c63ff"/>
    <path id="Path_69" data-name="Path 69" d="M806.169,606.892c0,2.785-.657,4.917-.577,6.621a109.744,109.744,0,0,1-13.868,4.974c-.535.153-1.07.3-1.608.443-2.915-8.924-5.834-17.1-6.984-17.963-2.632-1.975-3.95,6.2-3.95,4.221s1.318-1.975-1.971-4.607-1.318-14.479-1.318-14.479l-4.607-11.847,5.154-18.9,6.693-24.545h6.582s.195.141.52.4c1.647,1.345,6.613,5.837,6.063,10.785-.164,1.475.2,5.761.84,11.469,1.941,17.233,6.4,35.968,6.4,40.911C803.537,600.966,806.169,602.942,806.169,606.892Z" transform="translate(-601.078 -394.689)" fill="#e6e6e6"/>
    <path id="Path_70" data-name="Path 70" d="M721.074,519.094c-.008-.019-.011-.034-.019-.05a10.155,10.155,0,0,0-.516-1.161c-1.112-2.09.065-5.3-1.188-8.844-2.025-5.746-4.493-9.134-8.11-12.171-.107-.092-.214-.18-.325-.271l0,0a94.688,94.688,0,0,0-8.939-6.143c-.753-.481-1.54-.982-2.357-1.509-1.054-.676-1-2.93-.936-5.314.069-2.647.141-5.39-1.158-7.1l-.084-.111-.134-.034a57.473,57.473,0,0,0-13.531-1.043h0a26.613,26.613,0,0,0-5.7.837c-.138.038-.275.076-.409.122-.1.027-.206.061-.31.1l-.084.031-.065.061c-1.257,1.257-1.547,3.511-1.685,5.86v0q-.04.642-.069,1.284c-.107,2.285-.206,4.443-1.047,5.379a22.076,22.076,0,0,1-6.674,5.134,16.818,16.818,0,0,1-7.113,1.887l-.363-.011-.034.359c-2.621,4.993-2.521,17.875-2.6,31.67q-.006,1.152-.015,2.315c-.046,6.426-.168,12.962-.649,18.918-.21,2.56-.481,5.008-.844,7.3-1.765,11.144-9.761,1.891-13.585,9.306a9.37,9.37,0,0,0,.63,2.12c.439.26.89.512,1.337.764q2.974,1.656,6.059,3.091c.115.053.229.107.344.157a90.442,90.442,0,0,0,11.637,4.439c.776.237,1.551.462,2.334.676a89.236,89.236,0,0,0,21.245,3.182.649.649,0,0,1,.088,0,110.242,110.242,0,0,0,25.153-3.625l.344-.092c.539-.145,1.073-.29,1.608-.443a109.739,109.739,0,0,0,13.868-4.974,3.537,3.537,0,0,0,.05.5,1.157,1.157,0,0,0,.023.16c.008-.061.015-.122.019-.183.023-.18.042-.363.061-.546C729.654,548.307,724.8,528.95,721.074,519.094Z" transform="translate(-521.503 -360.374)" fill="#3f3d56"/>
    <path id="Path_71" data-name="Path 71" d="M706.475,392.491a21.387,21.387,0,1,0-1.087-18.22c-.1.245-.186.49-.274.744A21.358,21.358,0,0,0,706.475,392.491Z" transform="translate(-559.407 -289.65)" fill="#ffb6b6"/>
    <path id="Path_72" data-name="Path 72" d="M691.692,368.774c.92-2.575.519-1.234,1.449-3.8a6.4,6.4,0,0,0,.264,3.8H718.87v-14.8c-7.46-2.957-14.754-5.473-19.16,0a14.8,14.8,0,0,0-14.8,14.8Z" transform="translate(-547.698 -283.409)" fill="#2f2e41"/>
    <path id="Path_73" data-name="Path 73" d="M718.789,407.418c.02-.274.049-.558.088-.832a28.826,28.826,0,0,1,1.655-5.874c.734-2.066,1.478-4.141,2.222-6.207a17.771,17.771,0,0,0,.832,11.279c4.3-3.348,1.586-11,7.206-11,13.511,0,27.413-10.956,27.413-24.476s-5.8-23.615-19.307-23.615-24.486,6.188-24.75,19.7C730.792,370.3,715.646,406.048,718.789,407.418Z" transform="translate(-565.768 -280.903)" fill="#2f2e41"/>
    <circle id="Ellipse_16" data-name="Ellipse 16" cx="15.665" cy="15.665" r="15.665" transform="translate(175.084 55.999)" fill="#2f2e41"/>
    <path id="Path_74" data-name="Path 74" d="M730.029,592.621q-.08,1.209-.141,2.575c-.81,17.149-.111,40.235-5.57,52.762q-1.834,1-3.706,1.918-.075.034-.138.069c-.336.164-.672.325-1.008.478a.114.114,0,0,1-.042.023,91.233,91.233,0,0,1-11.388,4.474c-.478.153-.959.3-1.44.443l-.309.092a89.37,89.37,0,0,1-22.555,3.625c-.4.011-.787.019-1.165.027-.134,0-.264.008-.393.008-.428,0-.852.008-1.28.008q-1.3,0-2.579-.038A89.236,89.236,0,0,1,657.07,655.9c-.783-.214-1.559-.439-2.334-.676a90.443,90.443,0,0,1-11.637-4.439c-.115-.05-.229-.1-.344-.157q-3.083-1.433-6.059-3.091c-.447-.252-.9-.5-1.337-.764a9.372,9.372,0,0,1-.63-2.12c-.867-4.168-1.563-1.356-2.059-10.028-.455-7.95-.745-15.923-.852-20.48-.034-1.215-.046-2.189-.05-2.854.4-2.9,6.915-6.181,16.408-9.3.9-.294,1.826-.588,2.777-.879,2.567-.791,5.31-1.566,8.175-2.315,7.3-1.91,15.4-3.664,23.441-5.112,3.969-.711,7.923-1.349,11.763-1.891,6.735-.955,13.107-1.616,18.559-1.887.523-.027,1.035-.05,1.54-.065.542-.023,1.073-.038,1.593-.05C723.879,589.618,729.242,590.436,730.029,592.621Z" transform="translate(-514.859 -431.12)" fill="#2f2e41"/>
    <path id="Path_75" data-name="Path 75" d="M730.029,592.621q-.08,1.209-.141,2.575c-5.952-6.41-70.071,22.226-97.218,39.429-.455-7.95-.745-15.923-.852-20.48-.034-1.215-.046-2.189-.05-2.854.4-2.9,6.915-6.181,16.408-9.3.9-.294,1.826-.588,2.777-.879,2.567-.791,5.31-1.566,8.175-2.315,7.3-1.91,15.4-3.664,23.441-5.112,3.969-.711,7.923-1.349,11.763-1.891,6.735-.955,13.107-1.616,18.559-1.887.523-.027,1.035-.05,1.54-.065.542-.023,1.073-.038,1.593-.05C723.879,589.618,729.242,590.436,730.029,592.621Z" transform="translate(-514.859 -431.12)" opacity="0.2"/>
    <path id="Path_76" data-name="Path 76" d="M545.273,631.742a6.618,6.618,0,0,0,10.145.27l21.756,8.935-2.348-11.994-20.3-6.646a6.654,6.654,0,0,0-9.253,9.436Z" transform="translate(-460.501 -450.371)" fill="#ffb6b6"/>
    <path id="Path_77" data-name="Path 77" d="M641.86,518.489l-.119-.013-12.687.921a11.387,11.387,0,0,0-8.237,4.46,11.167,11.167,0,0,0-1.175,1.909l0,0a11.386,11.386,0,0,0-.938,7.216l5.973,30.066L610.3,561.745l-5.246.9-6.191-2.5-12.7.216-.294.974-2.665,8.834-.209.694,19.4,12.223,5.624-1.711,2.649,2.035.127,0,5.253.1,22.405.439,6.124-10.85.957-1.7c7.113-15.934,8.868-27.057,8.311-34.721a25.481,25.481,0,0,0-2.361-9.446C647.978,520.07,642.106,518.549,641.86,518.489Z" transform="translate(-484.719 -387.064)" fill="#3f3d56"/>
    <path id="Path_78" data-name="Path 78" d="M791.913,341.775a18.088,18.088,0,0,1-13.055-11.531c-.919-2.666-1.266-5.593-2.809-7.965a42.582,42.582,0,0,0,5.6-10.521c.528-1.453,1.764-4.09-.332-4.889-1.67-.637-3.566.9-4.556,2.112a8.044,8.044,0,0,0-1.579,3.144l-1.024-4.521a.586.586,0,0,0-.7-.4A6.681,6.681,0,0,0,768.274,313a5.9,5.9,0,0,0,.9,4.02,15.773,15.773,0,0,0,3.466,3.366,10.52,10.52,0,0,1,3.176,3.821,37.07,37.07,0,0,1,1.573,5.177,19.181,19.181,0,0,0,14.219,13.5C792.328,343.038,792.634,341.933,791.913,341.775Zm-15.8-27.4A6.652,6.652,0,0,1,777.2,310.3a6.452,6.452,0,0,1,1.472-1.595,2.9,2.9,0,0,1,2.078-.818c.939.2.561,1.247.362,1.879q-.395,1.251-.868,2.475a40.662,40.662,0,0,1-2.135,4.625c-.42.778-.868,1.54-1.336,2.29l-.968-4.274a.48.48,0,0,0,.311-.509Zm-6.693.228a5.659,5.659,0,0,1,3.75-6.155L775.9,320.5c-.188.277-.381.55-.576.822-.051-.059-.1-.119-.15-.177-1.908-2.076-5.235-3.492-5.753-6.54Z" transform="translate(-599.183 -256.204)" fill="#6c63ff"/>
  </g>
</svg>
