<svg xmlns="http://www.w3.org/2000/svg" width="28" height="20" viewBox="0 0 222 218">
  <g id="Group_47" data-name="Group 47" transform="translate(-1211 -293)">
    <rect id="Rectangle_39" data-name="Rectangle 39" width="222" height="152" transform="translate(1211 359)" fill="#f2f2f2"/>
    <g id="Group_36" data-name="Group 36" transform="translate(1211.25 293)">
      <path id="Path_13" data-name="Path 13" d="M583.455,183.482a196.727,196.727,0,0,1-1.713,25.287c-.039.294-.082.589-.121.883h-79.2c-.234-.291-.465-.585-.688-.883-.745-.986-1.444-2-2.086-3.051-3.086-5.058-4.519-10.993-3.139-15.1l.025-.064a7.2,7.2,0,0,1,1.39-2.448c3.178-3.618,9.648-3.054,15.533-.181-5.3-5.732-9.528-12.979-9.882-19.467-.348-6.328,2.937-10.868,6.505-14.731.117-.128.234-.252.351-.376.057-.064.117-.124.174-.188,2.784-2.944,6.034-5.849,10.762-5.526,5.186.355,10.957,4.664,15.015,9.7s6.768,10.762,9.513,16.352,5.721,11.315,10.109,16.079c-5.949-7.438-10.758-15.912-12.564-24.17s-.3-16.207,4.941-20.13a12.313,12.313,0,0,1,5.381-2.206c.227-.039.457-.071.692-.1,4.87-.582,10.7,1.071,15.671,5.072a36.012,36.012,0,0,1,11.209,17.193C583.249,171.663,583.483,177.672,583.455,183.482Z" transform="translate(-422.128 -143.005)" fill="#f2f2f2"/>
      <path id="Path_14" data-name="Path 14" d="M533.525,296.1h-1.514q-.724-.447-1.454-.883c-.3-.188-.607-.369-.912-.553q-7.561-4.56-15.213-8.744t-15.366-7.985a.635.635,0,0,1-.369-.724.184.184,0,0,1,.025-.053c.071-.135.231-.192.465-.078.631.312,1.266.624,1.9.944q7.742,3.863,15.419,8.116t15.26,8.882c.106.064.213.131.319.2Z" transform="translate(-423.87 -229.453)" fill="#fff"/>
      <path id="Path_15" data-name="Path 15" d="M576.929,228.387h-.937c-.213-.294-.422-.589-.635-.883q-7.5-10.4-15-20.793-12.28-17.021-24.553-34.042a.6.6,0,0,1-.107-.206c-.071-.252.114-.4.351-.376a.711.711,0,0,1,.5.312l13.766,19.083,24.429,33.868c.518.717,1.036,1.437,1.554,2.153C576.507,227.8,576.72,228.093,576.929,228.387Z" transform="translate(-447.746 -161.739)" fill="#fff"/>
      <path id="Path_16" data-name="Path 16" d="M677.251,204.012c-.039,1.578-.135,3.132-.263,4.672l-.075.883h-.982c.028-.294.057-.589.082-.883.2-2.224.33-4.473.337-6.782a94.586,94.586,0,0,0-1.969-19.055,118.711,118.711,0,0,0-5.878-19.775,136.023,136.023,0,0,0-9.545-19.545.524.524,0,0,1-.089-.348c.039-.28.411-.365.692-.1a.813.813,0,0,1,.142.177q.686,1.165,1.348,2.338a135.933,135.933,0,0,1,9.141,19.616,118.151,118.151,0,0,1,5.487,19.807,93.319,93.319,0,0,1,1.572,18.995Z" transform="translate(-527.237 -142.918)" fill="#fff"/>
      <path id="Path_17" data-name="Path 17" d="M506.178,328.322H290.868a3.1,3.1,0,0,0-3.093,3.093v145.9a3.1,3.1,0,0,0,3.093,3.093h215.31a3.09,3.09,0,0,0,2.352-1.086.717.717,0,0,0,.067-.085,2.9,2.9,0,0,0,.443-.748,3.019,3.019,0,0,0,.234-1.174v-145.9A3.1,3.1,0,0,0,506.178,328.322Zm2.213,148.993a2.19,2.19,0,0,1-.365,1.213,2.287,2.287,0,0,1-.837.752,2.194,2.194,0,0,1-1.011.245H290.868a2.213,2.213,0,0,1-2.21-2.21v-145.9a2.213,2.213,0,0,1,2.21-2.21h215.31a2.213,2.213,0,0,1,2.213,2.21Z" transform="translate(-287.775 -262.557)" fill="#3f3d56"/>
      <rect id="Rectangle_38" data-name="Rectangle 38" width="220.616" height="0.884" transform="translate(0.441 78.162)" fill="#3f3d56"/>
      <circle id="Ellipse_5" data-name="Ellipse 5" cx="2.653" cy="2.653" r="2.653" transform="translate(5.304 69.744)" fill="#3f3d56"/>
      <circle id="Ellipse_6" data-name="Ellipse 6" cx="2.653" cy="2.653" r="2.653" transform="translate(12.931 69.744)" fill="#3f3d56"/>
      <circle id="Ellipse_7" data-name="Ellipse 7" cx="2.653" cy="2.653" r="2.653" transform="translate(20.557 69.744)" fill="#3f3d56"/>
      <path id="Path_18" data-name="Path 18" d="M558.41,541.644c-2.653-1.727-3.973-5.74-3.323-9.411a11.35,11.35,0,0,1,6.033-8.2,9.453,9.453,0,0,1,8.949.636c2.691,1.646,6.5,2.547,7.775,5.839.982,2.53-.264,7.668-1.585,10.125a7.5,7.5,0,0,1-5.353,3.518,16.083,16.083,0,0,1-13.007-3Z" transform="translate(-460.162 -388.311)" fill="#2f2e41"/>
      <path id="Path_19" data-name="Path 19" d="M256.589,483.595l-2.121,3.657-.28.482-.408.709h-6.254l.422-.709,1.092-1.841,2.547-4.3,2.884,1.153Z" transform="translate(-159.725 -310.767)" fill="#ffb8b8"/>
      <path id="Path_20" data-name="Path 20" d="M531.645,613.968l-1.142-.709-.142-.089,7.169-13.064a4.871,4.871,0,0,1,2.926-2.348,4.816,4.816,0,0,1,2.405-.089,4.738,4.738,0,0,1,1.327.5,4.654,4.654,0,0,1,.493.312,4.734,4.734,0,0,1,1.454,1.639,4.9,4.9,0,0,1-.149,4.948l-2.763,4.416-2.362,3.778-.443.709h-8.772Z" transform="translate(-444.313 -436.291)" fill="#2f2e41"/>
      <circle id="Ellipse_8" data-name="Ellipse 8" cx="8.712" cy="8.712" r="8.712" transform="translate(97.038 140.545)" fill="#ffb8b8"/>
      <path id="Path_21" data-name="Path 21" d="M574.192,612.037H554.609l.089-.252q-.075-.229-.138-.458c-.046-.16-.085-.323-.121-.482a10.71,10.71,0,0,1,0-4.5c1.082-5.314,5.4-9.631,5.4-9.631.075-.057.149-.11.223-.163a9.853,9.853,0,0,1,2.075-1.164,13.242,13.242,0,0,1,8.829-.106,17.626,17.626,0,0,1,2.3.876c.262.124.4.2.4.2l.223,6.814.269,8.158Z" transform="translate(-459.696 -434.36)" fill="#6c63ff"/>
      <path id="Path_22" data-name="Path 22" d="M613.754,609.744l-1.5-7.612-1.511-7.676a1.6,1.6,0,0,0-1.295-1.266l-3.164-.546-2.944-.507a1.582,1.582,0,0,0-1.529.585,1.564,1.564,0,0,0-.344.972,1.6,1.6,0,0,0,.131.635c1.536,3.583,1.564,9.254,1.174,15.416-.018.234-.032.472-.05.709H613.9Z" transform="translate(-490.199 -432.777)" fill="#2f2e41"/>
      <path id="Path_23" data-name="Path 23" d="M550.911,594.666a1.606,1.606,0,0,0-2.536-.88l-1.359,1.234-5.562,5.065a1.541,1.541,0,0,0-.4.564c-.628,1.5-1.852,4.462-3.274,8.119l-.713,1.841c-.085.234-.177.472-.27.709h9.166c.075-.238.149-.475.223-.709.408-1.288.805-2.55,1.188-3.778,1.121-3.565,2.132-6.8,2.912-9.364q.324-1.064.592-1.965A1.606,1.606,0,0,0,550.911,594.666Z" transform="translate(-448.468 -433.643)" fill="#2f2e41"/>
      <path id="Path_24" data-name="Path 24" d="M340.2,485.2h.592l-.082-.2-.216-.511-3.338-7.921-.511.309-4.1,2.479,2.1,5.133.291.709h5.26Z" transform="translate(-214.588 -307.527)" fill="#ffb8b8"/>
      <path id="Path_25" data-name="Path 25" d="M615.107,596.044a4.9,4.9,0,0,0-6.14-2.9,4.433,4.433,0,0,0-.45.177,4.84,4.84,0,0,0-2.064,1.749,4.679,4.679,0,0,0-.507.983,4.874,4.874,0,0,0,.11,3.749l1.025,2.284,3.668,8.158.319.709h7.424l.511-.2,1.327-.511.184-.071Z" transform="translate(-492.878 -433.279)" fill="#2f2e41"/>
      <path id="Path_26" data-name="Path 26" d="M597.486,526.339a1.441,1.441,0,0,0,1.64-.622,2.075,2.075,0,0,0,.12-1.824,3.809,3.809,0,0,0-1.133-1.495,4.4,4.4,0,0,0-1.993-1.032,2.647,2.647,0,0,0-2.147.472,1.907,1.907,0,0,0-.648,2.03,2.812,2.812,0,0,0,1.447,1.419,9.61,9.61,0,0,0,3.915,1.113Z" transform="translate(-484.893 -387.088)" fill="#2f2e41"/>
      <path id="Path_27" data-name="Path 27" d="M580.638,544.822c-1.4.193-1.221-.52-1.782-1.818s-1.312-2.839-2.72-2.97c-1.154-.108-2.1.815-3.039,1.5a6.347,6.347,0,0,1-5.842,1.086,4.1,4.1,0,0,1-2.54-4.965,4.236,4.236,0,0,1,2.45-2.316,8.523,8.523,0,0,1,3.413-.474,17.609,17.609,0,0,1,7.4,1.894,7.153,7.153,0,0,1,3.732,3.634c.6,1.675,1,4.028-.723,4.481Z" transform="translate(-466.35 -395.825)" fill="#2f2e41"/>
      <path id="Path_28" data-name="Path 28" d="M601.931,514.5a2.93,2.93,0,0,1,1.012-3.664,4.963,4.963,0,0,1,4-.561,7.862,7.862,0,0,1,5.64,5.467c.574,2.107.233,4.371.718,6.5a8.53,8.53,0,0,0,10.72,6.287c1.455-.427,2.934-1.466,3.077-2.976a8.342,8.342,0,0,1-4.94,8.353,14.544,14.544,0,0,1-6,.781,10.73,10.73,0,0,1-3.9-.626,6.976,6.976,0,0,1-3.665-3.974,11.043,11.043,0,0,1-.488-5.475c.2-1.429.6-2.829.708-4.268a5.924,5.924,0,0,0-.987-4.112,3.16,3.16,0,0,0-3.842-1.018,9.285,9.285,0,0,1-1.466.924c-.551.182-1.331-.138-1.281-.715Z" transform="translate(-490.054 -379.854)" fill="#2f2e41"/>
      <path id="Path_29" data-name="Path 29" d="M770.781,600l.067-.709,2-20.814a12.737,12.737,0,0,1,2.1-1.337,12.4,12.4,0,0,1,10.24-.224,11.208,11.208,0,0,1,1.646.805l1.171,21.57.039.709Z" transform="translate(-599.453 -422.319)" fill="#6c63ff"/>
      <circle id="Ellipse_9" data-name="Ellipse 9" cx="8.712" cy="8.712" r="8.712" transform="translate(171.985 133.189)" fill="#ffb8b8"/>
      <path id="Path_30" data-name="Path 30" d="M784.027,522.923a4.742,4.742,0,0,0-3.6-8,13.372,13.372,0,0,0-3.49.9,11.54,11.54,0,0,1-5.422.488,7.239,7.239,0,0,1-4.617-2.726,5.305,5.305,0,0,1-.653-5.2c.879-1.924,2.933-2.984,4.864-3.845a8.89,8.89,0,0,1,2.47-.811,3.167,3.167,0,0,1,2.457.619c.543.467.861,1.169,1.452,1.573a4.876,4.876,0,0,0,2.331.524,8.94,8.94,0,0,1,4.33,16.154Z" transform="translate(-596.261 -375.71)" fill="#2f2e41"/>
      <path id="Path_31" data-name="Path 31" d="M753.892,581.67l-1.3-3.6-.081-.225a.746.746,0,0,0-1.116-.368l-1.474.982s-9.453,0-10.212,5.672c-.011.089-.025.188-.035.294a.055.055,0,0,1,0,.014c-.1.372-1.88,7.268-3.412,15.781-.042.234-.085.472-.128.709h20.541C757.341,592.376,756.967,584.424,753.892,581.67Z" transform="translate(-577.094 -423.251)" fill="#2f2e41"/>
      <path id="Path_32" data-name="Path 32" d="M818.892,600.219c-1.121-8.733-2.724-15.8-2.724-15.8-.014-.106-.028-.206-.039-.294-.755-5.672-10.209-5.672-10.209-5.672l-1.473-.982a.747.747,0,0,0-1.117.368l-1.38,3.827c-3.076,2.754-3.449,10.705-2.781,19.257h19.811C818.952,600.691,818.92,600.453,818.892,600.219Z" transform="translate(-617.591 -423.252)" fill="#2f2e41"/>
      <path id="Path_33" data-name="Path 33" d="M371.863,585.084l-2.107,19.885-.074.709h-5.7c.067-.231.135-.468.206-.709,1.617-5.548,3.82-13.646,3.582-15.792A4.2,4.2,0,0,1,370,584.712l.163.032Z" transform="translate(-336.95 -428.002)" fill="#6c63ff"/>
      <circle id="Ellipse_10" data-name="Ellipse 10" cx="8.712" cy="8.712" r="8.712" transform="translate(35.394 133.52)" fill="#a0616a"/>
      <path id="Path_34" data-name="Path 34" d="M399.276,596.144a14.285,14.285,0,0,0-1.075,2.54c-.1.312-.2.638-.294.972-.067.231-.128.468-.188.709H374.741c.032-.234.06-.472.092-.709,1.174-9.276,2.125-18.69,2.277-20.226l.021-.22c13.77-7.257,23.819,2.235,23.819,2.235s.014.067.036.2C401.206,582.97,402.327,590.717,399.276,596.144Z" transform="translate(-343.893 -422.688)" fill="#6c63ff"/>
      <path id="Path_35" data-name="Path 35" d="M438.093,608.037l-1.532-3.285.372-13.025,3.944-.731.138-.025a10.444,10.444,0,0,1,4.476,5.221c.766,1.915,2.224,7.676,3.455,12.816.057.238.113.475.17.709H438.877l-.33-.709Z" transform="translate(-383.785 -432.042)" fill="#6c63ff"/>
      <path id="Path_36" data-name="Path 36" d="M381.333,478.822H330.956a4.081,4.081,0,0,0-4.076,4.076v50.376a4.081,4.081,0,0,0,4.076,4.076h50.376a4.078,4.078,0,0,0,4.076-4.076V482.9a4.078,4.078,0,0,0-4.076-4.076Zm3.366,54.452a3.369,3.369,0,0,1-3.366,3.366H330.956a3.371,3.371,0,0,1-3.366-3.366V482.9a3.371,3.371,0,0,1,3.366-3.366h50.376A3.369,3.369,0,0,1,384.7,482.9Zm-38.884,3.366-.074.709h21.095c.06-.241.121-.479.188-.709Z" transform="translate(-313.009 -359.673)" fill="#3f3d56"/>
      <path id="Path_37" data-name="Path 37" d="M571.943,478.822H521.566a4.081,4.081,0,0,0-4.076,4.076v50.376a4.081,4.081,0,0,0,4.076,4.076h50.376a4.078,4.078,0,0,0,4.076-4.076V482.9a4.078,4.078,0,0,0-4.076-4.076Zm3.366,54.452a3.369,3.369,0,0,1-3.366,3.366H521.566a3.371,3.371,0,0,1-3.366-3.366V482.9a3.371,3.371,0,0,1,3.366-3.366h50.376a3.369,3.369,0,0,1,3.366,3.366ZM530.87,536.64q.064.229.138.458l-.089.252h17.615c.018-.238.032-.475.05-.709Z" transform="translate(-436.008 -359.673)" fill="#3f3d56"/>
      <path id="Path_38" data-name="Path 38" d="M762.563,478.822H712.186a4.078,4.078,0,0,0-4.076,4.076v50.376a4.078,4.078,0,0,0,4.076,4.076h50.376a4.081,4.081,0,0,0,4.076-4.076V482.9a4.081,4.081,0,0,0-4.076-4.076Zm3.366,54.452a3.371,3.371,0,0,1-3.366,3.366H712.186a3.369,3.369,0,0,1-3.366-3.366V482.9a3.369,3.369,0,0,1,3.366-3.366h50.376a3.371,3.371,0,0,1,3.366,3.366Zm-27.284,3.366c-.018.234-.035.472-.053.709h15.284c.028-.234.06-.472.089-.709Z" transform="translate(-559.013 -359.673)" fill="#3f3d56"/>
      <path id="Path_39" data-name="Path 39" d="M546.889,691.5H429.834a2.838,2.838,0,1,1,0-5.675H546.889a2.838,2.838,0,0,1,0,5.675Z" transform="translate(-377.613 -493.247)" fill="#ccc"/>
      <path id="Path_40" data-name="Path 40" d="M573.767,426.5H522.334a2.838,2.838,0,1,1,0-5.675h51.433a2.838,2.838,0,1,1,0,5.675Z" transform="translate(-437.302 -322.246)" fill="#6c63ff"/>
      <path id="Path_41" data-name="Path 41" d="M395.5,529.34a1.721,1.721,0,0,0,2.251.144,15.3,15.3,0,0,0,4.923-5.727,9.254,9.254,0,0,0-.115-8.414c-1.246-2.127-3.446-3.5-5.638-4.628a10.029,10.029,0,0,0-2.722-1.049,3.879,3.879,0,0,0-2.821.455,2.436,2.436,0,0,0-1.1,2.515,9.169,9.169,0,0,0-3.913-2.627,5.061,5.061,0,0,0-2.989-.217,4.9,4.9,0,0,0-2.963,2.966,5.933,5.933,0,0,0-.448,3.237,3.954,3.954,0,0,0,1.728,2.708,5.334,5.334,0,0,0,3.939.37,33.35,33.35,0,0,1,3.947-.924,4.082,4.082,0,0,1,3.666,1.284,5.6,5.6,0,0,1,.855,2.692l.674,4.909a5.987,5.987,0,0,0,.536,2.051,1.182,1.182,0,0,0,.191.255Z" transform="translate(-347.224 -379.517)" fill="#2f2e41"/>
    </g>
  </g>
</svg>
