<svg xmlns="http://www.w3.org/2000/svg" width="238.352" height="180.524" viewBox="0 0 258.352 180.524">
  <g id="Group_38" data-name="Group 38" transform="translate(0 0)">
    <rect id="Rectangle_40" data-name="Rectangle 40" width="26.656" height="31.056" transform="translate(38.734 6.211)" fill="#f2f2f2"/>
    <rect id="Rectangle_41" data-name="Rectangle 41" width="26.656" height="31.056" transform="translate(110.679 24.327)" fill="#f2f2f2"/>
    <rect id="Rectangle_42" data-name="Rectangle 42" width="26.656" height="31.056" transform="translate(182.884 6.211)" fill="#f2f2f2"/>
    <rect id="Rectangle_43" data-name="Rectangle 43" width="70.131" height="17.487" transform="translate(59.167 111.37)" fill="#3f3d56"/>
    <path id="Path_79" data-name="Path 79" d="M607.228,543.041h-61.79l17.352-30.054,13.543-23.457Z" transform="translate(-404.28 -362.842)" fill="#3f3d56"/>
    <rect id="Rectangle_44" data-name="Rectangle 44" width="102.701" height="46.713" transform="translate(35.439 133.5)" fill="#3f3d56"/>
    <circle id="Ellipse_17" data-name="Ellipse 17" cx="12.178" cy="12.178" r="12.178" transform="translate(159.767 102.292)" fill="#6c63ff"/>
    <rect id="Rectangle_45" data-name="Rectangle 45" width="222.77" height="0.518" transform="translate(0.405 180.006)" fill="#3f3d56"/>
    <path id="Path_80" data-name="Path 80" d="M452.312,431.512v16.315H435.8l10.093-17.487h5.745Z" transform="translate(-323.015 -318.97)" opacity="0.1"/>
    <path id="Path_81" data-name="Path 81" d="M376.235,515.85v46.713H321.228l.052-.091L348.2,515.85Z" transform="translate(-238.095 -382.35)" opacity="0.1"/>
    <path id="Path_82" data-name="Path 82" d="M580.143,610.224h-34.7L562.79,580.17l.776,1.343Z" transform="translate(-404.28 -430.024)" opacity="0.1"/>
    <path id="Path_83" data-name="Path 83" d="M420.431,484.962H335.168l.067-.116L363.2,436.412l14.6-25.292,26.032,45.093,16.576,28.711Z" transform="translate(-248.427 -304.724)" fill="#6c63ff"/>
    <circle id="Ellipse_18" data-name="Ellipse 18" cx="5.245" cy="5.245" r="5.245" transform="translate(123.998 96.543)" fill="#3f3d56"/>
    <path id="Path_84" data-name="Path 84" d="M215.619,381.633a95.242,95.242,0,0,1-31.242-5.245c-13.471-4.658-24.507-11.082-32.8-19.094-15.689-15.157-28.551-17.441-36.577-16.689a25.721,25.721,0,0,0-13.795,5.308l-.346-.385a26.238,26.238,0,0,1,14.059-5.435,34.724,34.724,0,0,1,16.125,2.548c6.874,2.723,13.9,7.527,20.893,14.28,8.239,7.96,19.211,14.345,32.61,18.977a97.959,97.959,0,0,0,76.06-5.649,85.751,85.751,0,0,1,23.089-8.125,54.809,54.809,0,0,1,26.521,1.206c18,5.6,30.293,5.3,37.437,4.068,7.708-1.332,11.205-4,11.24-4.025l.318.409c-.145.113-3.635,2.773-11.47,4.127-7.2,1.245-19.582,1.546-37.679-4.084-18.323-5.7-36.881.6-49.222,6.886a99.347,99.347,0,0,1-37.69,10.633Q219.372,381.633,215.619,381.633Z" transform="translate(-100.859 -278.175)" fill="#3f3d56"/>
    <path id="Path_85" data-name="Path 85" d="M309.67,291.189l-.37-.362a18.921,18.921,0,0,0,3.794-6.638c1.259-3.79,1.874-9.775-2.347-16.766-4.319-7.153-4.513-12.963-3.916-16.577a14.851,14.851,0,0,1,2.379-6.229l.411.314a14.646,14.646,0,0,0-2.285,6.03c-.576,3.523-.375,9.192,3.853,16.195,4.329,7.17,3.688,13.321,2.388,17.219A19.066,19.066,0,0,1,309.67,291.189Z" transform="translate(-253.343 -207.508)" fill="#3f3d56"/>
    <path id="Path_86" data-name="Path 86" d="M286.794,139.491H249.527V102.224h37.267Zm-36.749-.518h36.232V102.742H250.045Z" transform="translate(-211.052 -101.966)" fill="#3f3d56"/>
    <path id="Path_87" data-name="Path 87" d="M588.67,362.189l-.37-.361a18.924,18.924,0,0,0,3.794-6.638c1.259-3.79,1.874-9.775-2.347-16.766-4.319-7.153-4.513-12.963-3.916-16.577a14.844,14.844,0,0,1,2.379-6.229l.411.314a14.65,14.65,0,0,0-2.285,6.03c-.576,3.523-.375,9.192,3.853,16.195,4.329,7.17,3.688,13.321,2.387,17.219A19.058,19.058,0,0,1,588.67,362.189Z" transform="translate(-460.138 -260.133)" fill="#3f3d56"/>
    <path id="Path_88" data-name="Path 88" d="M565.794,210.491H528.527V173.224h37.267Zm-36.749-.518h36.232V173.742H529.045Z" transform="translate(-417.848 -154.591)" fill="#3f3d56"/>
    <path id="Path_89" data-name="Path 89" d="M866.67,290.189l-.37-.362a18.922,18.922,0,0,0,3.794-6.638c1.259-3.79,1.874-9.775-2.347-16.766-4.319-7.153-4.513-12.963-3.916-16.577a14.843,14.843,0,0,1,2.379-6.229l.411.314a14.651,14.651,0,0,0-2.285,6.03c-.576,3.523-.375,9.192,3.853,16.195,4.329,7.17,3.688,13.321,2.387,17.219A19.065,19.065,0,0,1,866.67,290.189Z" transform="translate(-666.193 -206.767)" fill="#3f3d56"/>
    <path id="Path_90" data-name="Path 90" d="M843.794,138.491H806.527V101.224h37.267Zm-36.749-.518h36.232V101.742H807.045Z" transform="translate(-623.902 -101.224)" fill="#3f3d56"/>
    <rect id="Rectangle_46" data-name="Rectangle 46" width="22.774" height="0.518" transform="translate(46.239 11.128)" fill="#3f3d56"/>
    <rect id="Rectangle_47" data-name="Rectangle 47" width="22.774" height="0.518" transform="translate(46.239 16.821)" fill="#3f3d56"/>
    <rect id="Rectangle_48" data-name="Rectangle 48" width="22.774" height="0.518" transform="translate(46.239 22.515)" fill="#3f3d56"/>
    <rect id="Rectangle_49" data-name="Rectangle 49" width="22.774" height="0.518" transform="translate(117.926 28.726)" fill="#3f3d56"/>
    <rect id="Rectangle_50" data-name="Rectangle 50" width="22.774" height="0.518" transform="translate(117.926 34.42)" fill="#3f3d56"/>
    <rect id="Rectangle_51" data-name="Rectangle 51" width="22.774" height="0.518" transform="translate(117.926 40.113)" fill="#3f3d56"/>
    <rect id="Rectangle_52" data-name="Rectangle 52" width="22.774" height="0.518" transform="translate(189.871 11.128)" fill="#3f3d56"/>
    <rect id="Rectangle_53" data-name="Rectangle 53" width="22.774" height="0.518" transform="translate(189.871 16.821)" fill="#3f3d56"/>
    <rect id="Rectangle_54" data-name="Rectangle 54" width="22.774" height="0.518" transform="translate(189.871 22.515)" fill="#3f3d56"/>
    <path id="Path_91" data-name="Path 91" d="M921.072,735.806c1.4,5.157,6.174,8.351,6.174,8.351s2.517-5.168,1.122-10.325-6.174-8.351-6.174-8.351S919.677,730.648,921.072,735.806Z" transform="translate(-708.491 -563.926)" fill="#6c63ff"/>
    <path id="Path_92" data-name="Path 92" d="M902.8,749.523c3.828,3.727,4.3,9.456,4.3,9.456s-5.739-.313-9.568-4.04-4.3-9.456-4.3-9.456S898.97,745.8,902.8,749.523Z" transform="translate(-688.167 -578.751)" fill="#3f3d56"/>
    <rect id="Rectangle_55" data-name="Rectangle 55" width="26.656" height="31.056" transform="translate(49.603 144.408)" fill="#f2f2f2"/>
    <path id="Path_93" data-name="Path 93" d="M328.794,672.491H291.527V635.224h37.267Zm-36.749-.518h36.232V635.742H292.045Z" transform="translate(-242.182 -497.027)" fill="#fff"/>
    <rect id="Rectangle_56" data-name="Rectangle 56" width="22.774" height="0.518" transform="translate(56.591 149.325)" fill="#6c63ff"/>
    <rect id="Rectangle_57" data-name="Rectangle 57" width="22.774" height="0.518" transform="translate(56.591 155.019)" fill="#6c63ff"/>
    <rect id="Rectangle_58" data-name="Rectangle 58" width="22.774" height="0.518" transform="translate(56.591 160.712)" fill="#6c63ff"/>
    <path id="Path_94" data-name="Path 94" d="M295.144,318.411h0c-6.219,0-11.261,5.6-11.261,12.5v8.769h2.7l1.561-3.249-.39,3.249h17.335l1.419-2.954-.355,2.954H308.1v-6.885C308.1,324.85,302.3,318.411,295.144,318.411Z" transform="translate(-236.517 -262.204)" fill="#2f2e41"/>
    <path id="Path_95" data-name="Path 95" d="M169,539.8l-6.914,2.939-24.027,19.533a7.072,7.072,0,0,0-1.556,3.8c-.173,2.247-7.433,14-4.84,15.557s11.927,6.223,12.446,3.111,3.284-16.421,3.284-16.421l23.163-20.743Z" transform="translate(-123.278 -426.295)" fill="#2f2e41"/>
    <path id="Path_96" data-name="Path 96" d="M122.5,701.458l-2.939,8.643s3.111,3.284,1.556,6.05v9.507H118.7l-.691-5.013s-2.756,4.95-4.149,5.013c-2.918.133-8.7,1.171-8.871-.385s4.377-3.072,4.377-3.072l4.84-13.31,2.074-8.124Z" transform="translate(-103.914 -545.607)" fill="#2f2e41"/>
    <path id="Path_97" data-name="Path 97" d="M225.383,507.35s1.556,15.211-2.939,17.977-24.373,11.582-24.373,11.582,8.47,7.951,6.741,9.853-9.507,7.087-10.544,6.05-12.619-13.483-11.236-17.459,20.57-16.94,20.57-16.94l2.247-8.124.691-6.569,7.26-4.667Z" transform="translate(-161.681 -396.096)" fill="#2f2e41"/>
    <circle id="Ellipse_19" data-name="Ellipse 19" cx="7.206" cy="7.206" r="7.206" transform="translate(48.576 61.425)" fill="#ffb9b9"/>
    <path id="Path_98" data-name="Path 98" d="M314.222,377.824s-.346,6.569,5.013,8.643-13.31,15.557-13.31,15.557V386.985s2.42-2.593,0-6.569Z" transform="translate(-252.854 -306.241)" fill="#ffb9b9"/>
    <path id="Path_99" data-name="Path 99" d="M354.615,497.049l-1.383,6.741-4.149,23.163s3.457,9.853-1.21,9.68-2.42-10.717-2.42-10.717l2.42-19.187V499.3Z" transform="translate(-281.752 -394.611)" fill="#ffb9b9"/>
    <path id="Path_100" data-name="Path 100" d="M235.8,484.358l-1.556,6.05-7.087,17.113s-4.84,8.124-.864,7.951,3.976-7.951,3.976-7.951l8.124-13.829v-7.778Z" transform="translate(-192.669 -385.205)" fill="#ffb9b9"/>
    <path id="Path_101" data-name="Path 101" d="M247,679.393l5.7,5.359s3.976-.864,5.531,3.8,2.593,7.606,2.593,7.606l-2.074,1.21-2.593-3.63s-1.556,6.569-3.111,7.087-9.334,3.976-8.643,0l3.8-5.531s.519-6.223-1.037-6.741-5.7-5.7-5.7-5.7Z" transform="translate(-205.08 -529.765)" fill="#2f2e41"/>
    <path id="Path_102" data-name="Path 102" d="M291.581,528.387s-16.249-5.877-17.286-5.359a7.8,7.8,0,0,1-2.435.632l.015-2.36s5.359-1.9,8.3-.691,11.927,6.569,11.927,6.569Z" transform="translate(-227.605 -411.775)" fill="#3f3d56"/>
    <path id="Path_103" data-name="Path 103" d="M281.676,420.587s4.667-5.359,6.05-8.643a8.486,8.486,0,0,1,4.486-4.411s10.379,2.337,10.207,6.486-6.569,10.544-6.569,10.544.864,22.99-3.8,22.644a10.011,10.011,0,0,1-2.074-4.149c-.519-2.42-16.594-5.013-16.594-5.013s-1.383,2.42-1.556,1.383,1.383-26.447,1.383-26.447l8.243-5.449Z" transform="translate(-227.568 -328.261)" fill="#d0cde1"/>
    <path id="Path_104" data-name="Path 104" d="M360.739,425.267l.116.065a2.385,2.385,0,0,1,1.218,2.08l0,12.828a2.4,2.4,0,0,0,.855,1.829c.666.566,1.283,1.383.009,1.807-2.074.691-10.2,4.149-10.371,2.939s-.519-2.593,0-2.593c.406,0,2.825-12.4,4.768-17.7a2.385,2.385,0,0,1,3.407-1.261Z" transform="translate(-287.22 -341.18)" fill="#d0cde1"/>
    <path id="Path_105" data-name="Path 105" d="M264.353,426.249l-2.42.691-2.766,11.927s-3.284.691-2.247,1.9a52.793,52.793,0,0,0,5.359,4.321Z" transform="translate(-216.382 -342.134)" fill="#d0cde1"/>
    <path id="Path_106" data-name="Path 106" d="M303.681,324.9a5.906,5.906,0,0,0-4.66-2.378H298.8c-4.263,0-7.718,3.857-7.718,8.616h1.428l.231-1.756.338,1.756h8.471l.71-1.485-.177,1.485h1.667q1.167,5.793-3.352,11.587h2.839l1.419-2.971-.355,2.971h5.412l1.065-6.833A11.548,11.548,0,0,0,303.681,324.9Z" transform="translate(-241.852 -265.253)" fill="#2f2e41"/>
    <rect id="Rectangle_59" data-name="Rectangle 59" width="26.915" height="8.773" transform="translate(80.523 111.37)" opacity="0.1"/>
    <rect id="Rectangle_60" data-name="Rectangle 60" width="24.327" height="15.01" transform="translate(82.075 103.839)" fill="#6c63ff"/>
  </g>
</svg>
